<svg width="152" height="47" xmlns="http://www.w3.org/2000/svg" fill="none">

 <g>
  <title>Layer 1</title>
  <path id="svg_1" fill="#232222" d="m72.9653,10.3453c0,-0.66261 0.2283,-1.2105 0.6984,-1.64372c0.47,-0.43322 1.1147,-0.64982 1.9205,-0.64982c0.7923,0 1.437,0.2166 1.907,0.64982c0.4701,0.43322 0.7118,0.98111 0.7118,1.64372c0,0.6753 -0.2417,1.2232 -0.7252,1.6564c-0.4835,0.4332 -1.1147,0.6498 -1.9071,0.6498c-0.7923,0 -1.4235,-0.2166 -1.907,-0.6498c-0.4566,-0.4205 -0.6984,-0.9811 -0.6984,-1.6564zm4.9691,20.909l-4.687,0l0,-16.6151l4.687,0l0,16.6151z"/>
  <path id="svg_2" fill="#232222" d="m80.606,22.8302c0,-2.5483 0.6446,-4.5998 1.9204,-6.1542c1.2759,-1.5545 2.9949,-2.3318 5.1706,-2.3318c1.9204,0 3.4112,0.6244 4.4856,1.8731l0.188,-1.5673l4.2438,0l0,16.0545c0,1.4526 -0.3491,2.714 -1.0475,3.7971c-0.6983,1.0703 -1.6787,1.8985 -2.9412,2.4591c-1.2624,0.5607 -2.7397,0.841 -4.4318,0.841c-1.2893,0 -2.5383,-0.2421 -3.747,-0.7263c-1.2221,-0.4842 -2.1353,-1.1085 -2.7665,-1.8858l2.0682,-2.7012c1.1684,1.2359 2.5785,1.8603 4.2438,1.8603c1.2356,0 2.2025,-0.3186 2.9009,-0.9429c0.6849,-0.6244 1.0341,-1.5163 1.0341,-2.6758l0,-0.8919c-1.0744,1.1595 -2.498,1.7329 -4.2573,1.7329c-2.1085,0 -3.8007,-0.7773 -5.1034,-2.3445c-1.3027,-1.5545 -1.9473,-3.6314 -1.9473,-6.2052l0,-0.1911l-0.0134,0zm4.6736,0.3185c0,1.5036 0.3223,2.6885 0.9535,3.5422c0.6312,0.8537 1.5042,1.2869 2.6188,1.2869c1.4236,0 2.4443,-0.5096 3.0621,-1.5162l0,-6.9952c-0.6312,-1.0193 -1.6385,-1.5163 -3.0218,-1.5163c-1.1281,0 -2.001,0.4333 -2.6457,1.3124c-0.6446,0.8537 -0.9669,2.1661 -0.9669,3.8862z"/>
  <path id="svg_3" fill="#232222" d="m104.001,14.6373l0.148,1.924c1.249,-1.478 2.927,-2.2298 5.036,-2.2298c1.853,0 3.236,0.5225 4.136,1.5545c0.9,1.0321 1.37,2.5739 1.397,4.638l0,10.7285l-4.674,0l0,-10.6266c0,-0.9429 -0.215,-1.6182 -0.644,-2.0514c-0.43,-0.4205 -1.155,-0.6371 -2.149,-0.6371c-1.316,0 -2.297,0.5352 -2.955,1.5927l0,11.7096l-4.6733,0l0,-16.6024l4.3783,0z"/>
  <path id="svg_4" fill="#232222" d="m117.726,10.3428c0,-0.66255 0.229,-1.21044 0.699,-1.64366c0.47,-0.43322 1.114,-0.64982 1.92,-0.64982c0.792,0 1.437,0.2166 1.907,0.64982c0.47,0.43322 0.712,0.98111 0.712,1.64366c0,0.6753 -0.242,1.2232 -0.725,1.6564c-0.484,0.4333 -1.115,0.6499 -1.907,0.6499c-0.793,0 -1.424,-0.2166 -1.907,-0.6499c-0.457,-0.4204 -0.699,-0.9811 -0.699,-1.6564zm4.969,20.9091l-4.687,0l0,-16.6151l4.687,0l0,16.6151z"/>
  <path id="svg_5" fill="#232222" d="m131.655,10.5596l0,4.0773l2.994,0l0,3.2491l-2.994,0l0,8.2949c0,0.6116 0.12,1.0575 0.376,1.3251c0.241,0.2676 0.725,0.395 1.423,0.395c0.524,0 0.981,-0.0382 1.37,-0.1019l0,3.3638c-0.913,0.2675 -1.867,0.3949 -2.834,0.3949c-3.277,0 -4.955,-1.5672 -5.009,-4.7144l0,-8.9446l-2.552,0l0,-3.2491l2.552,0l0,-4.0774l4.674,0l0,-0.0127z"/>
  <path id="svg_6" fill="#232222" d="m144.802,31.5583c-2.566,0 -4.661,-0.7517 -6.272,-2.2425c-1.612,-1.4908 -2.418,-3.4785 -2.418,-5.9758l0,-0.4333c0,-1.6691 0.336,-3.1599 1.021,-4.4723c0.685,-1.3124 1.639,-2.3317 2.888,-3.0452c1.249,-0.7136 2.672,-1.0704 4.257,-1.0704c2.39,0 4.284,0.7136 5.654,2.1534c1.37,1.4271 2.068,3.4657 2.068,6.0905l0,1.8093l-11.147,0c0.148,1.0831 0.605,1.9495 1.37,2.6121c0.766,0.6498 1.719,0.9811 2.887,0.9811c1.8,0 3.21,-0.6244 4.217,-1.8603l2.297,2.4464c-0.698,0.9429 -1.652,1.6819 -2.847,2.2043c-1.182,0.5352 -2.512,0.8027 -3.975,0.8027zm-0.524,-13.6463c-0.927,0 -1.679,0.2931 -2.256,0.8919c-0.578,0.5989 -0.94,1.4526 -1.115,2.5611l6.5,0l0,-0.3568c-0.027,-0.9811 -0.295,-1.7456 -0.846,-2.2935c-0.537,-0.5351 -1.303,-0.8027 -2.283,-0.8027z"/>
  <path id="svg_7" fill="#00B37E" d="m48.7794,0.31255l-11.9377,42.28985c-0.0607,0.1919 -0.3035,0.2495 -0.4452,0.1151l-7.9922,-7.5826l5.9891,-21.1929c0.0607,-0.1919 -0.1214,-0.3647 -0.3237,-0.3071l-22.3377,5.6822l-7.95169,-7.5443c-0.14163,-0.1343 -0.08093,-0.3647 0.1214,-0.4223l44.55389,-11.34509c0.2024,-0.0384 0.3845,0.13437 0.3238,0.30714z" opacity="0.5"/>
  <path id="svg_8" fill="#00B37E" d="m28.4039,35.1348l-3.0754,10.942c-0.0607,0.1919 -0.3035,0.2495 -0.4452,0.1152l-24.80611,-23.5157c-0.14163,-0.1344 -0.08093,-0.3648 0.1214,-0.4223l11.53301,-2.9371l16.6723,15.8179z" opacity="0.5"/>
  <path id="svg_9" fill="#00B37E" d="m34.3921,13.9419l-5.9891,21.1929l-16.6723,-15.8179l22.3377,-5.6821c0.2023,-0.0576 0.3844,0.1152 0.3237,0.3071z"/>
 </g>
</svg>