<?xml version="1.0" encoding="iso-8859-1"?>
<!-- Generator: Adobe Illustrator 19.0.0, SVG Export Plug-In . SVG Version: 6.00 Build 0)  -->
<svg version="1.1" id="Layer_1" xmlns="http://www.w3.org/2000/svg" xmlns:xlink="http://www.w3.org/1999/xlink" x="0px" y="0px"
	 viewBox="0 0 512.001 512.001" style="enable-background:new 0 0 512.001 512.001;" xml:space="preserve">
<g transform="translate(0 -1020.36)">
	<g shape-rendering="auto" image-rendering="auto" color-rendering="auto" color-interpolation="sRGB">
		<path style="fill:#464C63;" d="M207.157,1020.371c-4.11,0.42-7.224,3.899-7.188,8.03v34.344
			c-43.322,16.21-77.636,50.222-93.844,93.685H72.032c-4.394-0.018-7.98,3.512-8.031,7.906v96.031
			c-0.017,4.418,3.551,8.014,7.97,8.031c0.02,0,0.041,0,0.061,0h34.281c16.22,43.268,50.346,77.402,93.656,93.623v162.309
			c-0.017,4.418,3.551,8.014,7.97,8.031c0.02,0,0.041,0,0.061,0h96c4.419,0.018,8.014-3.551,8.031-7.971c0-0.02,0-0.041,0-0.061
			v-162.309c43.316-16.221,77.508-50.264,93.718-93.623h34.219c4.419,0.018,8.014-3.551,8.031-7.971c0-0.02,0-0.041,0-0.061v-96.031
			c-0.052-4.395-3.637-7.924-8.031-7.906h-34.188c-16.214-43.406-50.416-77.5-93.75-93.717v-34.312
			c0.016-4.419-3.552-8.014-7.971-8.03c-0.02,0-0.04,0-0.06,0h-96c-0.28-0.015-0.561-0.015-0.841,0H207.157z M199.969,1124.994
			v31.438h-31.313C176.752,1143.799,187.358,1133.084,199.969,1124.994z M312.032,1125.154
			c12.569,8.068,23.144,18.732,31.218,31.313h-31.218V1125.154z M168.688,1268.432h31.281v31.25
			C187.394,1291.607,176.761,1281.004,168.688,1268.432z M312.032,1268.432h31.187c-8.064,12.566-18.639,23.213-31.187,31.281
			V1268.432z"/>
		<path style="fill:#2ECC71;" d="M216.032,1036.433h79.937c0,0,0,84.914,0,127.9c-0.018,4.445,3.586,8.049,8.031,8.031h128.031
			v79.967H304.001c-4.445,0-8.048,3.586-8.031,8.031v256.057h-79.937v-256.057c0.016-4.443-3.592-8.045-8.031-8.029H79.969v-79.967
			h128.032c4.445,0,8.048-3.586,8.031-8.031V1036.433z"/>
		<g>
			<path style="fill:#FFFFFF;" d="M199.969,1079.994v26.594c-21.314,11.283-38.932,28.455-50.187,49.844h-26.25
				C138.118,1121.91,165.536,1094.576,199.969,1079.994z"/>
			<path style="fill:#FFFFFF;" d="M312.032,1079.994c34.454,14.578,61.845,41.941,76.437,76.438H362
				c-11.261-21.35-28.663-38.811-49.968-50.094V1079.994z"/>
			<path style="fill:#FFFFFF;" d="M123.657,1268.396h26.313c11.273,21.326,28.657,38.674,50,49.936v26.469
				C165.526,1330.203,138.227,1302.824,123.657,1268.396z"/>
			<path style="fill:#FFFFFF;" d="M361.907,1268.396h26.469c-14.59,34.457-41.909,61.832-76.343,76.404v-26.625
				C333.292,1306.924,350.648,1289.683,361.907,1268.396z"/>
		</g>
		<path style="fill:#464C63;" d="M256,1116.377c-13.16,0-24,10.84-24,24s10.84,24,24,24c13.16,0,24-10.84,24-24
			S269.16,1116.377,256,1116.377z"/>
		<path style="fill:#FFFFFF;" d="M256,1132.377c4.513,0,8,3.486,8,8c0,4.512-3.487,8-8,8c-4.513,0-8-3.488-8-8
			C248,1135.863,251.487,1132.377,256,1132.377z"/>
		<path style="fill:#464C63;" d="M256,1388.377c-13.16,0-24,10.84-24,24s10.84,23.969,24,23.969c13.16,0,24-10.809,24-23.969
			S269.16,1388.377,256,1388.377z"/>
		<path style="fill:#FFFFFF;" d="M256,1404.377c4.513,0,8,3.486,8,8c0,4.512-3.487,7.969-8,7.969c-4.513,0-8-3.455-8-7.969
			S251.487,1404.377,256,1404.377z"/>
		<path style="fill:#464C63;" d="M256,1324.377c-13.16,0-24,10.84-24,24s10.84,24,24,24c13.16,0,24-10.84,24-24
			S269.16,1324.377,256,1324.377z"/>
		<path style="fill:#FFFFFF;" d="M256,1340.377c4.513,0,8,3.486,8,8c0,4.512-3.487,8-8,8c-4.513,0-8-3.488-8-8
			C248,1343.863,251.487,1340.377,256,1340.377z"/>
		<path style="fill:#464C63;" d="M256,1260.377c-13.16,0-24,10.84-24,24s10.84,24,24,24c13.16,0,24-10.84,24-24
			S269.16,1260.377,256,1260.377z"/>
		<path style="fill:#FFFFFF;" d="M256,1276.377c4.513,0,8,3.486,8,8c0,4.512-3.487,8-8,8c-4.513,0-8-3.488-8-8
			C248,1279.863,251.487,1276.377,256,1276.377z"/>
		<path style="fill:#464C63;" d="M256,1180.377c-17.578,0-32,14.42-32,32c0,17.578,14.422,32,32,32s32-14.422,32-32
			C288,1194.797,273.579,1180.377,256,1180.377z"/>
		<path style="fill:#FFFFFF;" d="M256,1196.377c8.931,0,16,7.068,16,16s-7.069,16-16,16c-8.931,0-16-7.068-16-16
			S247.069,1196.377,256,1196.377z"/>
		<path style="fill:#464C63;" d="M185,1188.377c-13.16,0-24,10.84-24,24s10.84,24,24,24s24-10.84,24-24
			S198.16,1188.377,185,1188.377z"/>
		<path style="fill:#FFFFFF;" d="M185,1204.377c4.513,0,8,3.486,8,8c0,4.512-3.487,8-8,8s-8-3.488-8-8
			C177,1207.863,180.487,1204.377,185,1204.377z"/>
		<path style="fill:#464C63;" d="M328,1188.377c-13.16,0-24,10.84-24,24s10.84,24,24,24s24-10.84,24-24
			S341.16,1188.377,328,1188.377z"/>
		<path style="fill:#FFFFFF;" d="M328,1204.377c4.513,0,8,3.486,8,8c0,4.512-3.487,8-8,8s-8-3.488-8-8
			C320,1207.863,323.487,1204.377,328,1204.377z"/>
		<path style="fill:#464C63;" d="M120,1188.377c-13.16,0-24,10.84-24,24s10.84,24,24,24s24-10.84,24-24
			S133.16,1188.377,120,1188.377z"/>
		<path style="fill:#FFFFFF;" d="M120,1204.377c4.513,0,8,3.486,8,8c0,4.512-3.487,8-8,8s-8-3.488-8-8
			C112,1207.863,115.487,1204.377,120,1204.377z"/>
		<path style="fill:#464C63;" d="M392,1188.377c-13.16,0-24,10.84-24,24s10.84,24,24,24s24-10.84,24-24
			S405.16,1188.377,392,1188.377z"/>
		<path style="fill:#FFFFFF;" d="M392,1204.377c4.513,0,8,3.486,8,8c0,4.512-3.487,8-8,8s-8-3.488-8-8
			C384,1207.863,387.487,1204.377,392,1204.377z"/>
	</g>
	<g>
		<path style="fill:#464C63;" d="M263.996,1212.365c0,4.418-3.582,8-8,8c0,0,0,0-0.001,0c-4.418,0-8-3.582-8-8l0,0
			c0-4.418,3.582-8,8-8c0,0,0,0,0,0C260.413,1204.365,263.995,1207.947,263.996,1212.365L263.996,1212.365z"/>
		
			<path shape-rendering="auto" image-rendering="auto" color-rendering="auto" color-interpolation="sRGB" style="fill:#464C63;" d="
			M256,1452.377c-13.16,0-24,10.84-24,24s10.84,23.969,24,23.969c13.16,0,24-10.809,24-23.969S269.16,1452.377,256,1452.377z"/>
	</g>
	<g shape-rendering="auto" image-rendering="auto" color-rendering="auto" color-interpolation="sRGB">
		<path style="fill:#FFFFFF;" d="M256,1468.377c4.513,0,8,3.486,8,8c0,4.512-3.487,7.969-8,7.969c-4.513,0-8-3.455-8-7.969
			S251.487,1468.377,256,1468.377z"/>
		<path style="fill:#464C63;" d="M256,1052.377c-13.16,0-24,10.84-24,24s10.84,24,24,24c13.16,0,24-10.84,24-24
			S269.16,1052.377,256,1052.377z"/>
		<path style="fill:#FFFFFF;" d="M256,1068.377c4.513,0,8,3.486,8,8c0,4.512-3.487,8-8,8c-4.513,0-8-3.488-8-8
			C248,1071.863,251.487,1068.377,256,1068.377z"/>
		<path style="fill:#31AF66;" d="M216.02,1036.427v127.903c0.017,4.418-3.551,8.014-7.97,8.031c-0.021,0-0.041,0-0.062,0h9.875
			c4.419,0.018,8.015-3.551,8.032-7.969c0-0.021,0-0.041,0-0.063v-127.902L216.02,1036.427z M79.957,1172.361v79.967h9.875v-79.967
			H79.957z M207.988,1252.328c4.419-0.018,8.015,3.551,8.032,7.969c0,0.021,0,0.041,0,0.063v256.057h9.875v-256.057
			c0.017-4.418-3.551-8.014-7.97-8.031c-0.021,0-0.041,0-0.062,0H207.988z"/>
		<g>
			<path style="fill:#E1E1E6;" d="M199.957,1079.988c-34.434,14.58-61.851,41.914-76.437,76.436h9.874
				c13.155-31.133,36.803-56.326,66.563-71.686V1079.988z"/>
			<path style="fill:#E1E1E6;" d="M312.02,1079.988v26.342c21.306,11.283,38.707,28.744,49.968,50.094h9.875
				c-11.261-21.35-28.662-38.811-49.968-50.094v-21.594C318.66,1083.068,315.396,1081.414,312.02,1079.988z"/>
			<path style="fill:#E1E1E6;" d="M123.645,1268.391c14.57,34.43,41.869,61.809,76.312,76.404v-4.75
				c-29.747-15.377-53.298-40.605-66.437-71.654H123.645z"/>
			<path style="fill:#E1E1E6;" d="M361.895,1268.391c-11.258,21.285-28.616,38.527-49.875,49.779v26.625
				c3.374-1.424,6.643-3.051,9.875-4.719v-21.906c21.259-11.252,38.616-28.494,49.875-49.779H361.895z"/>
			<path style="fill:#E1E1E6;" d="M255.988,1068.394c-4.51,0-8.03,3.426-8.03,7.936c0,4.512,3.52,8.031,8.03,8.031
				c0.88,0,1.682-0.256,2.469-0.496c-3.237-1.023-5.562-3.902-5.562-7.531s2.323-6.462,5.562-7.469
				c-0.784-0.24-1.584-0.464-2.469-0.464V1068.394z"/>
			<path style="fill:#E1E1E6;" d="M255.988,1132.424c-4.51,0-8.03,3.395-8.03,7.906c0,4.51,3.52,8.031,8.03,8.031
				c0.88,0,1.682-0.256,2.469-0.496c-3.237-1.023-5.562-3.902-5.562-7.531s2.323-6.438,5.562-7.438
				c-0.784-0.24-1.584-0.465-2.469-0.465V1132.424z"/>
			<path style="fill:#E1E1E6;" d="M120.02,1204.359c-4.512,0-8.032,3.52-8.032,8.031c0,4.51,3.52,8.031,8.032,8.031
				c0.88,0,1.686-0.256,2.469-0.496c-3.238-1.023-5.563-3.902-5.563-7.531c0-3.627,2.325-6.5,5.563-7.531
				c-0.784-0.256-1.584-0.496-2.469-0.496V1204.359z"/>
			<path style="fill:#E1E1E6;" d="M184.988,1204.359c-4.51,0-8.03,3.52-8.03,8.031c0,4.51,3.52,8.031,8.03,8.031
				c0.88,0,1.682-0.256,2.469-0.496c-3.237-1.023-5.562-3.902-5.562-7.531c0-3.627,2.325-6.5,5.562-7.531
				c-0.784-0.256-1.584-0.496-2.469-0.496V1204.359z"/>
			<path style="fill:#E1E1E6;" d="M328.02,1204.359c-4.512,0-8.032,3.52-8.032,8.031c0,4.51,3.52,8.031,8.032,8.031
				c0.896,0,1.682-0.24,2.469-0.496c-3.238-1.023-5.563-3.902-5.563-7.531c0-3.627,2.325-6.5,5.563-7.531
				c-0.784-0.256-1.584-0.496-2.469-0.496V1204.359z"/>
			<path style="fill:#E1E1E6;" d="M392.052,1204.359c-4.514,0-8.032,3.52-8.032,8.031c0,4.51,3.52,8.031,8.032,8.031
				c0.896,0,1.682-0.24,2.467-0.496c-3.238-1.023-5.562-3.902-5.562-7.531c0-3.627,2.323-6.5,5.562-7.531
				c-0.784-0.256-1.568-0.496-2.467-0.496V1204.359z"/>
			<path style="fill:#E1E1E6;" d="M255.988,1276.391c-4.51,0-8.03,3.395-8.03,7.906s3.52,8.031,8.03,8.031
				c0.88,0,1.682-0.256,2.469-0.496c-3.237-1.023-5.562-3.9-5.562-7.529s2.323-6.439,5.562-7.438
				c-0.784-0.24-1.584-0.465-2.469-0.465V1276.391z"/>
			<path style="fill:#E1E1E6;" d="M255.988,1340.418c-4.51,0-8.03,3.395-8.03,7.906s3.52,8.031,8.03,8.031
				c0.88,0,1.682-0.256,2.469-0.496c-3.237-1.023-5.562-3.902-5.562-7.531s2.323-6.438,5.562-7.438
				c-0.784-0.24-1.584-0.465-2.469-0.465V1340.418z"/>
			<path style="fill:#E1E1E6;" d="M255.988,1404.293c-4.51,0-8.03,3.52-8.03,8.031c0,4.51,3.52,8.031,8.03,8.031
				c0.88,0,1.682-0.256,2.469-0.496c-3.237-1.023-5.562-3.902-5.562-7.531c0-3.627,2.325-6.5,5.562-7.531
				c-0.784-0.256-1.584-0.496-2.469-0.496V1404.293z"/>
			<path style="fill:#E1E1E6;" d="M255.988,1468.322c-4.51,0-8.03,3.52-8.03,8.031s3.52,8.031,8.03,8.031
				c0.88,0,1.682-0.256,2.469-0.496c-3.237-1.023-5.562-3.902-5.562-7.531s2.325-6.5,5.562-7.531
				c-0.784-0.256-1.584-0.496-2.469-0.496V1468.322z"/>
			<path style="fill:#E1E1E6;" d="M255.988,1196.33c-8.931,0-15.936,7.131-15.936,16.063s7.005,15.936,15.936,15.936
				c0.848,0,1.568-0.352,2.376-0.465c-7.718-1.152-13.563-7.381-13.563-15.467c0-8.088,5.845-14.416,13.563-15.594
				c-0.816-0.16-1.536-0.465-2.376-0.465L255.988,1196.33z"/>
		</g>
	</g>
</g>
<g>
</g>
<g>
</g>
<g>
</g>
<g>
</g>
<g>
</g>
<g>
</g>
<g>
</g>
<g>
</g>
<g>
</g>
<g>
</g>
<g>
</g>
<g>
</g>
<g>
</g>
<g>
</g>
<g>
</g>
</svg>
